<svg height="110.04144546612036" version="1.1" width="304.69530487060547" xmlns="http://www.w3.org/2000/svg" xmlns:xlink="http://www.w3.org/1999/xlink" style="overflow: hidden; position: relative; left: -0.6px; top: -0.8px;" viewBox="165 149.95859826336635 304.69530487060547 110.04144546612036" preserveAspectRatio="xMinYMin" id="main_svg"><desc style="-webkit-tap-highlight-color: rgba(0, 0, 0, 0);">Created with Logotizer</desc><defs style="-webkit-tap-highlight-color: rgba(0, 0, 0, 0);"></defs><path fill="#ffffff" stroke="none" d="M-80.18,-8.55Q-80.18,-8.55,-80.54,-10.16Q-80.91,-11.77,-80.91,-16.57Q-80.91,-21.38,-80.18,-24.59Q-79.45,-27.8,-77.77,-29.86Q-76.08,-31.92,-73.48,-32.81Q-70.88,-33.7,-66.98,-33.7Q-63.63,-33.7,-61.54,-33.46Q-59.44,-33.21,-57.05,-32.6L-57.68,-27.12Q-61.57,-27.35,-66.98,-27.35Q-69.45,-27.35,-70.76,-26.38Q-72.07,-25.41,-72.64,-23.12Q-73.22,-20.84,-73.22,-16.57Q-73.22,-12.3,-72.64,-10.02Q-72.07,-7.73,-70.76,-6.75Q-69.45,-5.77,-66.98,-5.77Q-60.3,-5.77,-57,-6.19L-56.37,-0.77Q-58.71,-0.05,-61.09,0.27Q-63.47,0.59,-66.98,0.59Q-70.88,0.59,-73.48,-0.3Q-76.08,-1.2,-77.77,-3.27Q-79.45,-5.34,-80.18,-8.55ZM-52.05,-29.46L-52.05,-32.06Q-52.05,-34.13,-49.99,-34.13L-46.83,-34.13Q-44.77,-34.13,-44.77,-32.06L-44.77,-29.46Q-44.77,-27.4,-46.83,-27.4L-49.99,-27.4Q-52.05,-27.4,-52.05,-29.46M-51.91,0L-51.91,-23.67L-44.86,-23.67L-44.86,0L-51.91,0ZM-38.86,0L-38.86,-23.67L-33.09,-23.67L-32.58,-20.16Q-27.54,-24.33,-22.45,-24.33Q-19.22,-24.33,-17.52,-22.65Q-15.82,-20.98,-15.82,-17.77L-15.82,0L-22.88,0L-22.88,-15.56Q-22.88,-17.16,-23.37,-17.74Q-23.86,-18.33,-25.17,-18.33Q-26.58,-18.33,-28.04,-17.82Q-29.51,-17.32,-31.8,-16.17L-31.76,0L-38.86,0ZM-11.13,-11.81Q-11.13,-18.75,-8.38,-21.54Q-5.63,-24.33,0.91,-24.33Q6.82,-24.33,9.46,-22.29Q12.09,-20.25,12.14,-16.08Q12.14,-12.77,10.43,-11.11Q8.72,-9.45,4.95,-9.45L-3.61,-9.45Q-3.28,-6.84,-2.05,-5.96Q-0.82,-5.09,2.02,-5.09Q5.58,-5.09,10.85,-5.63L11.53,-1.2Q7.8,0.59,1.2,0.59Q-5.48,0.59,-8.31,-2.31Q-11.13,-5.2,-11.13,-11.81M-3.75,-13.73L2.98,-13.73Q4.29,-13.73,4.73,-14.37Q5.18,-15,5.18,-16.17Q5.18,-17.84,4.31,-18.49Q3.45,-19.15,1.15,-19.15Q1.03,-19.15,0.94,-19.15Q-1.62,-19.13,-2.6,-18.09Q-3.63,-17.02,-3.75,-13.73ZM16.73,0L16.73,-23.67L22.41,-23.67L22.88,-20.2Q25.2,-22.29,27.34,-23.31Q29.48,-24.33,31.9,-24.33Q36.68,-24.33,37.99,-20.48Q42.12,-24.33,46.64,-24.33Q49.85,-24.33,51.53,-22.64Q53.2,-20.95,53.2,-17.77L53.2,0L46.15,0L46.15,-15.56Q46.15,-17.11,45.62,-17.72Q45.09,-18.33,43.66,-18.33Q42.52,-18.33,41.47,-17.89Q40.43,-17.46,38.39,-16.22L38.39,0L31.57,0L31.57,-15.56Q31.57,-17.11,30.97,-17.72Q30.38,-18.33,29.02,-18.33Q27.87,-18.33,26.82,-17.91Q25.78,-17.48,23.79,-16.27L23.79,0L16.73,0ZM57.68,-6.23L57.68,-8.65Q57.68,-11.48,59.6,-13.07Q61.52,-14.65,64.92,-14.65L73.36,-14.65L73.36,-15.7Q73.31,-17.51,72.53,-18.14Q71.74,-18.77,69.49,-18.77Q65.95,-18.77,59.51,-18.38L58.83,-23.18Q61.41,-23.65,65.04,-23.99Q68.67,-24.33,71.16,-24.33Q73.52,-24.33,75.2,-23.91Q76.88,-23.48,78.09,-22.5Q79.31,-21.52,79.9,-19.83Q80.48,-18.14,80.48,-15.66L80.48,0L74.86,0L74.13,-3.61Q70.55,0.59,65.39,0.59Q61.97,0.59,59.82,-1.22Q57.68,-3.02,57.68,-6.23M64.69,-7.2Q64.69,-5.93,65.36,-5.34Q66.02,-4.76,67.48,-4.76Q68.77,-4.76,70.34,-5.34Q71.91,-5.93,73.36,-7.05L73.36,-10.36L66.98,-10.36Q65.74,-10.34,65.21,-9.75Q64.69,-9.16,64.69,-8.11L64.69,-7.2Z" transform="matrix(1,0,0,1,382.5,239.5117)" style="-webkit-tap-highlight-color: rgba(0, 0, 0, 0);" stroke-width="1"></path><path fill="#4aa78a" stroke="none" d="M41.212,119H118.788Q120.708,117.091,122.435,115H37.565Q39.29,117.089,41.211999999999996,119ZM51.414,127H108.586A55.154,55.154,0,0,0,114.30199999999999,123H45.698A55.153,55.153,0,0,0,51.414,127ZM80.009,29A51.005,51.005,0,0,1,131.008,79H135A55.01,55.01,0,0,0,25,79H29.009999999999998A51.005,51.005,0,0,1,80.00999999999999,29ZM80.009,33A47.005,47.005,0,0,0,33.01,79H127.006A47.005,47.005,0,0,0,80.00800000000001,33ZM80,135A54.863,54.863,0,0,0,100.633,131H59.366A54.863,54.863,0,0,0,80,135ZM25.432,87H134.56799999999998Q134.819,85.021,134.928,83H25.072Q25.18,85.02,25.432,87ZM27.061999999999998,95H132.938Q133.49599999999998,93.029,133.908,91H26.092Q26.503999999999998,93.028,27.061999999999998,95ZM34.555,111H125.445Q126.773,109.058,127.93499999999999,107H32.06499999999998Q33.22499999999998,109.056,34.554999999999986,111ZM30.017,103H129.983Q130.886,101.04,131.638,99H28.362Q29.112,101.04,30.017,103Z" stroke-width="0" opacity="1" transform="matrix(1,0,0,1,140,125)" style="-webkit-tap-highlight-color: rgba(0, 0, 0, 0); opacity: 1;"></path></svg>